<svg width="572" height="205" xmlns="http://www.w3.org/2000/svg"  version="1.0">
 <metadata id="metadata2468">image/svg+xml</metadata>

 <g>
  <title>Layer 1</title>
  <path fill="#ffffff" id="path2476" d="m104.5,198.88801c-10.09648,-1.31612 -12.86064,-4.40323 -10.62473,-11.86605c0.9572,-3.19484 1.65185,-3.87518 4.38115,-4.29088c1.78397,-0.27171 3.40334,-0.35011 3.59859,-0.17421c0.19526,0.17591 -1.28983,1.76402 -3.3002,3.52915c-2.41254,2.11823 -3.55315,3.91554 -3.35501,5.28662c0.51693,3.57704 4.42524,4.77867 14.01544,4.30913c7.41201,-0.3629 9.84148,-0.96155 16.24682,-4.00344c9.69424,-4.60377 16.66623,-11.47919 20.73099,-20.44383c2.64457,-5.83247 2.9775,-7.52102 2.54508,-12.90813c-1.51128,-18.82728 -19.49493,-32.24096 -43.31654,-32.30901c-5.24636,-0.01498 -7.77878,0.74595 -18.5,5.55881c-12.19921,5.47634 -27.05382,10.42383 -31.29707,10.42383c-1.54961,0 -8.13134,6.72236 -23.51986,24.02239c-11.75246,13.21232 -21.71727,24.23819 -22.14403,24.50194c-0.42676,0.26375 -1.69094,0.14106 -2.8093,-0.27265c-1.79245,-0.66307 0.28682,-3.35893 17.54811,-22.75194l19.58149,-21.99974l-6.19313,-0.60267c-6.97867,-0.67911 -9.11299,-2.00917 -7.50165,-4.67485c1.95283,-3.23061 13.41424,-9.9444 20.67188,-12.10904c3.98309,-1.18798 8.35375,-2.49319 9.71259,-2.90045c1.46508,-0.43911 8.56302,-7.85738 17.43969,-18.22674c17.73228,-20.71411 33.84554,-36.98625 36.62511,-36.98625c1.08052,0 1.96458,0.21834 1.96458,0.48521c0,0.26687 -9.9,11.75865 -22,25.5373c-12.1,13.77865 -22,25.48531 -22,26.01479c0,0.56211 4.87122,0.9627 11.70646,0.9627l11.70647,0l9.54353,-5.65612c20.44563,-12.11741 43.4464,-30.34863 44.53368,-35.29897c0.72675,-3.3089 2.50986,-3.22351 2.50986,0.1202c0,4.68093 -5.46255,9.42024 -38.40411,33.31943c-5.31895,3.85891 -8.33876,6.63991 -7.5,6.9069c0.77226,0.24582 4.70846,1.1553 8.7471,2.02105c27.26666,5.84511 41.22655,25.53851 34.29047,48.37402c-2.93994,9.67911 -8.62733,15.88039 -19.47205,21.23147c-8.94735,4.41487 -17.47509,6.00234 -26.16141,4.87003zm-56.78998,-56.50784c2.28013,-0.61132 10.6727,-10.8276 10.10771,-12.30413c-0.47394,-1.23859 -10.55023,1.58337 -16.7671,4.69578c-6.20833,3.10815 -8.40684,5.7393 -6.05063,7.24133c1.66886,1.06387 9.29004,1.28394 12.71002,0.36702zm26.35689,-8.66172c7.18361,-2.72492 14.93309,-6.48146 14.93309,-7.23877c0,-0.26383 -4.6125,-0.47662 -10.25,-0.47289l-10.25,0.00679l-4.48683,5.4537c-2.46775,2.99953 -4.63062,5.88506 -4.80636,6.4123c-0.35834,1.07501 5.04515,-0.43808 14.8601,-4.16113zm219.18309,54.29251c-2.47462,-1.5088 -3.25,-2.6796 -3.25,-4.90737c0,-7.68231 13.78973,-12.03871 38.25,-12.08378l10.75,-0.01981l0,2.48467c0,2.42452 -0.1392,2.47081 -5.75,1.9122c-11.67012,-1.16186 -37.75,4.75715 -37.75,8.56762c0,3.5063 9.06633,3.4963 39.9271,-0.044c36.48228,-4.1852 76.77137,-12.20631 130.5729,-25.9956c52.9898,-13.58125 74.59636,-21.88987 88.29733,-33.954c12.38732,-10.9074 12.65888,-23.07745 0.77864,-34.89532c-4.46109,-4.43767 -7.42582,-6.68136 -15.57597,-11.7878c-9.16747,-5.74383 -36.592,-17.06225 -43.6896,-18.03121c-7.09484,-0.96857 -8.2519,-0.0735 -13.92261,10.77012c-5.93294,11.34508 -8.39969,12.23193 -5.55407,1.99679c1.36708,-4.91711 1.44644,-6.40262 0.42909,-8.03166c-1.49793,-2.39858 -0.28139,-4.87608 3.28086,-6.6815c1.78831,-0.90635 3.45927,-4.2406 7.01612,-14c6.63588,-18.20772 6.72192,-18.58549 3.26566,-14.33818c-1.554,1.90967 -9.52126,12.70967 -17.70502,24c-17.48448,24.12161 -18.25556,25.02787 -21.29474,25.02787c-1.87577,0 -2.32144,-0.532 -2.30373,-2.75c0.01208,-1.5125 0.92008,-4.7295 2.01777,-7.1489c1.0977,-2.41939 1.74123,-4.65347 1.43008,-4.96463c-1.20907,-1.20907 -4.19922,1.84876 -9.71806,9.93801c-7.42693,10.88606 -11.11346,14.33749 -13.78624,12.90706c-1.08103,-0.57855 -1.96551,-1.93608 -1.96551,-3.01672c0,-3.20791 -1.4391,-2.30323 -6.41883,4.03518c-2.59263,3.3 -5.06427,6 -5.49253,6c-1.62055,0 -3.86113,-3.64387 -4.52895,-7.36543l-0.69363,-3.86544l-8.80426,8.61544c-4.84234,4.73848 -9.54686,8.61543 -10.45447,8.61543c-2.31267,0 -3.97793,-4.22107 -3.22452,-8.17347c0.34875,-1.82959 4.46276,-11.15656 9.14224,-20.7266c4.67948,-9.57003 8.33642,-17.5718 8.12653,-17.78169c-0.37205,-0.37205 -8.37683,9.61997 -32.1903,40.18176c-14.83623,19.04055 -15.43756,19.52372 -19.38519,15.57609c-1.89855,-1.89855 -1.99422,-1.85361 -7.25691,3.40908c-3.80457,3.80457 -6.4089,5.53484 -9.08705,6.03726c-5.60165,1.05088 -7.10236,-0.64629 -6.41975,-7.26013l0.54682,-5.29823l-2.6796,1.95328c-1.47378,1.07431 -6.2796,5.1506 -10.6796,9.05844c-10.59505,9.40993 -21.23182,16.69239 -22.51164,15.41257c-2.09502,-2.09502 10.56718,-34.33796 17.07299,-43.47451c2.30134,-3.23194 2.08927,-4.65715 -0.47912,-3.21981c-0.86227,0.48256 -11.58352,12.74005 -23.825,27.23887c-22.813,27.01975 -27.683,31.56989 -30.63243,28.62046c-2.44916,-2.44916 -1.46023,-6.95103 4.22084,-19.2144c3.01645,-6.51143 5.32543,-11.99873 5.13106,-12.19398c-0.19437,-0.19526 -1.84364,1.37179 -3.66505,3.48234c-16.4263,19.03386 -31.06465,33.53605 -42.89429,42.49531c-6.70005,5.07433 -16.50379,9.87552 -20.16736,9.87657c-5.53677,0.00159 -8.54198,-6.28043 -7.48605,-15.64865c0.62833,-5.57446 0.15132,-5.10818 -6.29095,6.14944c-2.83267,4.95 -4.82787,8.1 -4.43377,7c6.71806,-18.75122 19.53157,-41.22305 32.50159,-57c6.39083,-7.77391 10.05747,-11.3378 17.45918,-16.9699c4.03143,-3.06759 3.52009,-2.37358 -2.63962,3.58265c-7.48616,7.23887 -12.82577,13.88725 -11.15345,13.88725c0.46372,0 4.20686,-3.42516 8.3181,-7.61146c12.23379,-12.45718 24.32074,-20.76741 34.85645,-23.96512c6.99654,-2.12353 9.5841,-1.80399 12.99252,1.60443c2.53896,2.53896 3.07614,3.93752 3.32693,8.66168l0.29907,5.63383l4.34465,-6.20556c3.4264,-4.89401 4.62886,-5.96971 5.68931,-5.08961c1.09397,0.90791 0.44915,2.64059 -3.45871,9.29388c-21.05283,35.84329 -24.07525,41.5337 -24.07525,45.32715c0,2.69536 3.23584,1.24106 8.67584,-3.89922c8.46535,-7.99894 34.32416,-39.37261 34.32416,-41.64441c0,-0.42618 -2.68604,-0.07507 -5.96897,0.78024c-5.33972,1.39118 -6.03917,1.87449 -6.63488,4.58464c-0.65849,2.99572 -0.67574,3.00298 -1.5465,0.65062c-0.54558,-1.4739 -0.49492,-2.84359 0.13317,-3.60038c0.55755,-0.67182 5.58262,-2.97631 11.1668,-5.1211l10.15307,-3.89961l12.59866,-14.95793c22.24869,-26.41507 22.90198,-26.75025 9.99536,-5.12824c-4.89631,8.20261 -8.73965,15.07656 -8.54076,15.27545c0.19888,0.19889 18.57988,-6.22897 40.84667,-14.28412l40.48505,-14.64574l8.90617,-10.56243c12.24295,-14.51977 15.05308,-15.2749 6.90616,-1.85582c-2.475,4.07666 -4.5,7.66148 -4.5,7.96627c0,0.30478 5.0625,-1.23644 11.25,-3.42494c6.1875,-2.1885 24.51911,-8.56985 40.73692,-14.18079l29.48691,-10.20171l2.33801,-4.25c2.47985,-4.50784 5.18816,-5.63888 5.18816,-2.16667c0,1.14584 0.34404,1.93334 0.76454,1.75c10.96533,-4.78078 15.28532,-6.03684 16.70638,-4.85746c0.84099,0.69796 1.52908,2.19993 1.52908,3.3377c0,1.99111 -0.0511,1.99881 -1.3625,0.20535c-1.31303,-1.79567 -1.69311,-1.74412 -10.46675,1.41951c-8.56263,3.08755 -9.29481,3.5798 -12.30737,8.27447c-1.76172,2.7454 -5.31757,10.90812 -7.9019,18.13937c-6.98308,19.53952 -6.71095,17.84246 -2.8011,17.46777c2.95622,-0.2833 4.28764,-1.58288 11.59742,-11.32004c5.03617,-6.70856 8.15722,-11.78026 8,-13c-0.34617,-2.6856 -4.70265,-3.2959 -6.45177,-0.90384c-0.71832,0.98235 -1.30603,1.27561 -1.30603,0.65167c0,-1.60698 4.055,-4.24783 6.52251,-4.24783c1.14262,0 2.61749,0.54 3.27749,1.2c3.24442,3.24442 -0.07535,9.98393 -11.19539,22.72796l-5.60884,6.42795l13.75212,4.6141c17.77148,5.96267 30.55454,12.32352 41.71444,20.75711c14.27657,10.78887 19.29345,19.86013 16.52599,29.88142c-1.0516,3.80797 -2.80584,6.34404 -7.91957,11.44919c-10.79185,10.77376 -30.23364,19.55881 -61.64303,27.85431c-8.20914,2.1681 -22.10185,5.99392 -30.87267,8.50182c-36.89857,10.55064 -82.88508,19.70497 -140.81982,28.03238c-21.79162,3.13228 -28.09247,3.24182 -32.48323,0.56472zm-84.46016,-28.94332c2.04059,-1.0628 6.27665,-4.1003 9.41348,-6.75c8.0669,-6.81417 33.39114,-33.4238 40.11792,-42.1542c7.27731,-9.44491 14.88211,-24.47457 14.4773,-28.61206c-0.29165,-2.98091 -0.4134,-3.0472 -5.27163,-2.87035c-6.40157,0.23302 -21.80237,7.75633 -33.07617,16.15774c-9.09915,6.78083 -26.21307,24.14017 -30.56654,31.00488c-5.51106,8.69004 -9.67967,23.25809 -8.36632,29.23777c1.33908,6.0968 6.33729,7.598 13.27196,3.98622zm100.09884,-37.50219c3.63623,-2.98901 13.66122,-12.38511 22.27776,-20.88022c14.22025,-14.01985 16.12801,-15.55639 20.6667,-16.6452c6.05024,-1.45143 9.16686,-0.26312 9.16686,3.49515c0,3.33591 1.22869,3.10435 2.83971,-0.53518c0.73036,-1.65 1.96521,-3 2.74411,-3c1.93767,0 1.93286,0.01677 -2.58382,9c-4.75501,9.45725 -5.22728,12.84 -1.42886,10.23469c1.57004,-1.07689 38.7017,-50.29519 38.26987,-50.72702c-0.20147,-0.20147 -14.98562,5.04159 -32.85366,11.65124c-17.86804,6.60965 -35.86235,13.25754 -39.98735,14.77309l-7.5,2.75556l-10.25,20.13858c-9.57065,18.80384 -11.87619,25.17386 -9.11132,25.17386c0.62628,0 4.11378,-2.44555 7.75,-5.43455zm35.19833,-13.81545c6.85466,-7.93279 13.91299,-18.28465 13.91299,-20.40504c0,-2.46193 -3.94591,-1.38862 -7.84487,2.13385c-5.39003,4.86957 -16.15513,20.29517 -16.15513,23.14912c0,4.4173 3.5302,2.71015 10.08701,-4.87793zm62.77314,-27c7.36284,-7.2875 13.16024,-12.35 12.88312,-11.25c-0.27712,1.1 -1.54443,5.47579 -2.81624,9.72399c-1.27182,4.24819 -1.97579,8.06059 -1.56438,8.47199c0.95291,0.95291 9.19987,-8.18437 15.2948,-16.94598c2.58257,-3.7125 5.06614,-6.75 5.51906,-6.75c1.11409,0 1.15159,-0.15226 -1.67651,6.80772c-6.41877,15.7967 -0.34873,14.41147 9.28794,-2.11958c4.66104,-7.99568 8.88533,-12.41487 10.40996,-10.89025c0.47039,0.4704 1.13097,3.1833 1.46797,6.02868c0.33699,2.84539 1.00571,5.17343 1.48605,5.17343c0.48034,0 7.96941,-9.5625 16.64239,-21.25c15.17336,-20.44725 20.91541,-28.75 19.88308,-28.75c-2.29443,0 -81.46738,29.70183 -82.401,30.91285c-2.21039,2.8671 -21.27639,41.01266 -21.27639,42.5679c0,3.67614 4.35632,0.64515 16.86015,-11.73075zm29.13985,-25.75c0,-1.28889 0.50641,-1.99786 1.25,-1.75c0.6875,0.22917 1.25,1.01667 1.25,1.75c0,0.73333 -0.5625,1.52083 -1.25,1.75c-0.74359,0.24786 -1.25,-0.46111 -1.25,-1.75zm-7.83181,-0.63483c0.19756,-1.02584 0.80304,-1.75267 1.34551,-1.61517c1.4534,0.3684 1.1994,2.5123 -0.3592,3.03183c-0.8762,0.29207 -1.22022,-0.20206 -0.98631,-1.41666zm-107.70672,22.0305c1.53998,-1.53998 5.92913,-9.39567 5.24958,-9.39567c-0.18128,0 -2.46636,2.475 -5.07795,5.5c-2.93784,3.40289 -4.18168,5.5 -3.26216,5.5c0.81741,0 2.20815,-0.72195 3.09053,-1.60433zm-159.46147,72.56915c0,-2.66202 2.85111,-6.96482 4.61501,-6.96482c1.86417,0 1.76242,4.01614 -0.17171,6.77749c-1.94758,2.78056 -4.4433,2.88578 -4.4433,0.18733z"/>
 </g>
</svg>