<svg id="visual" viewBox="0 0 900 600" width="900" height="600" xmlns="http://www.w3.org/2000/svg" xmlns:xlink="http://www.w3.org/1999/xlink" version="1.1"><rect x="0" y="0" width="900" height="600" fill="#1F2937"></rect><path d="M0 473L21.5 476.5C43 480 86 487 128.8 493.7C171.7 500.3 214.3 506.7 257.2 506C300 505.3 343 497.7 385.8 498.3C428.7 499 471.3 508 514.2 505C557 502 600 487 642.8 485.3C685.7 483.7 728.3 495.3 771.2 499.8C814 504.3 857 501.7 878.5 500.3L900 499L900 601L878.5 601C857 601 814 601 771.2 601C728.3 601 685.7 601 642.8 601C600 601 557 601 514.2 601C471.3 601 428.7 601 385.8 601C343 601 300 601 257.2 601C214.3 601 171.7 601 128.8 601C86 601 43 601 21.5 601L0 601Z" fill="#111827" stroke-linecap="round" stroke-linejoin="miter"></path></svg>