<svg width="1920" height="122" xmlns="http://www.w3.org/2000/svg" fill="none" preserveAspectRatio="none">

 <g>
  <title>Layer 1</title>
  <path id="svg_1" fill="#1e1c45" d="m463.5,21.1304c-283.5,-47.5434 -463.5,0 -463.5,0l0,99.9996l1920,0l0,-50.043c-190,-49.9566 -273.5,-71.00001 -498,-49.9566c-224.5,21.0434 -281.21,44.6601 -540,49.9566c-172.829,3.5371 -307.645,-31.366 -418.5,-49.9566z"/>
  <path id="svg_2" fill="#2f2f2f" d="m1458,33.087c283.5,-47.5434 462,0 462,0l0,88.044l-1920,0l0,-50.0439c190,-49.9566 310,-17.4131 498,-49.9566c188,-32.5435 342,-12.54348 540,49.9566c172.37,3.5278 308.43,-19.2886 419.12,-37.8529l0.88,-0.1472z"/>
 </g>
</svg>